# xmcd CD database file
#
# Track frame offsets:
#	150
#	28923
#	69579
#	103716
#	134034
#	167480
#	201969
#	227995
#	262639
#
# Disc length: 3983 seconds
#
# Revision: 0
# Processed by: cddbd v1.5.1PL0 Copyright (c) Steve Scherf et al.
# Submitted via: CDex 1.51
#
DISCID=7e0f8d09
DTITLE=jaja - FOREVER
DYEAR=1900
DGENRE=Jazz
TTITLE0=FREEDOM
TTITLE1=FOREVER
TTITLE2=GREEN FIELD
TTITLE3=JEALOUSY
TTITLE4=A SONG FOR YOU
TTITLE5=ETERNAL
TTITLE6=SANTANA
TTITLE7=悲しみの向こうに
TTITLE8=SMILE
EXTD=
EXTT0=
EXTT1=
EXTT2=
EXTT3=
EXTT4=
EXTT5=
EXTT6=
EXTT7=
EXTT8=
PLAYORDER=
